<?xml version="1.0" standalone="no"?><!DOCTYPE svg PUBLIC "-//W3C//DTD SVG 1.1//EN" "http://www.w3.org/Graphics/SVG/1.1/DTD/svg11.dtd"><svg t="1632042297282" class="icon" viewBox="0 0 1024 1024" version="1.1" xmlns="http://www.w3.org/2000/svg" p-id="4862" xmlns:xlink="http://www.w3.org/1999/xlink" width="200" height="200"><defs><style type="text/css"></style></defs><path d="M0 512.001C0.002 794.721 229.28 1024 512.003 1024c282.72 0 511.999-229.278 511.999-511.999C1024.002 229.278 794.724 0 512.002 0s-512 229.278-512 512.001H0z m679.383 160c-10.735 0-21.225-5.39-27.273-15.203-9.273-15.047-4.592-34.765 10.453-44.03l161.96-99.86a3.4 3.4 0 0 0 0-1.814l-161.96-99.86c-15.047-9.265-19.726-28.985-10.453-44.03 9.281-15.048 28.976-19.734 44.031-10.438l170.095 104.86 2.648 2.64c26.304 26.33 26.304 69.142 0 95.47l-2.648 2.64-170.095 104.86A31.815 31.815 0 0 1 679.409 672h-0.024l-0.002 0.002z m-334.766 0l-0.02-0.001a31.813 31.813 0 0 1-16.736-4.766L157.764 562.378l-2.648-2.641c-26.304-26.327-26.304-69.141 0-95.468l2.648-2.64 170.095-104.86c15.022-9.297 34.766-4.611 44.03 10.436 9.274 15.048 4.593 34.766-10.452 44.031l-161.96 99.86a3.535 3.535 0 0 0-0.12 0.905c0 0.306 0.041 0.61 0.123 0.907l161.96 99.86c15.048 9.265 19.727 28.985 10.454 44.03-6.046 9.812-16.54 15.204-27.273 15.204h-0.004z m63.376 144.016c-3.797 0-7.664-0.688-11.422-2.123-16.508-6.313-24.775-24.814-18.46-41.313l208-544c6.313-16.501 24.814-24.797 41.32-18.469 16.508 6.313 24.775 24.814 18.46 41.312l-208 544c-4.875 12.75-17.015 20.593-29.898 20.593z" fill="#00B6F8" p-id="4863"></path></svg>